<svg width="120" height="65" viewBox="0 0 120 65" fill="none" xmlns="http://www.w3.org/2000/svg">
<path d="M29.0994 21.0432C29.1294 21.2649 29.1882 21.6623 29.2758 22.2353C29.3633 22.8083 29.4276 23.2459 29.4686 23.5483C29.5095 23.8506 29.5371 24.2371 29.5514 24.7077C29.5656 25.1784 29.5417 25.6237 29.4797 26.0438C29.474 26.1474 29.4011 26.7798 29.2612 27.9409C29.1213 29.102 28.9813 29.9702 28.8413 30.5455C28.0155 33.8105 26.5676 37.2381 24.4977 40.8283C22.6982 43.9269 20.8552 46.5592 18.9688 48.725C17.6333 50.2762 16.3123 51.5683 15.0056 52.6015C13.9881 53.428 13.0682 54.0246 12.2459 54.3911C11.6487 54.6631 10.9738 54.8745 10.2214 55.0253C9.31351 55.1987 8.47884 54.8888 7.71739 54.0954C7.62327 53.9858 7.49105 53.851 7.32073 53.6908C7.1504 53.5307 6.99601 53.3785 6.85756 53.2342C6.71912 53.09 6.60147 52.953 6.50462 52.8232C6.13666 52.3014 5.90047 51.8014 5.79607 51.3234C5.63125 50.5458 5.56439 49.3943 5.59549 47.8689C5.62437 47.3508 5.67694 46.7882 5.7532 46.1811C5.82946 45.5739 5.91665 45.0474 6.01476 44.6015C6.11287 44.1556 6.23482 43.5931 6.38062 42.9142C6.52642 42.2352 6.63303 41.7059 6.70047 41.3261C6.71171 41.2628 6.8865 40.6515 7.22484 39.4924C7.0864 39.3481 6.90575 39.1484 6.68291 38.8931C6.46006 38.6378 6.2621 38.4201 6.08905 38.2398C5.91599 38.0594 5.75052 37.8986 5.59264 37.7572C5.25472 37.457 5.0252 37.0794 4.90409 36.6244C4.78298 36.1693 4.74369 35.7331 4.78623 35.3159C4.76837 34.5991 4.84427 33.843 5.01392 33.0475C5.18356 32.2521 5.37376 31.5718 5.58453 31.0067C5.79529 30.4416 6.07227 29.7435 6.41544 28.9125C7.54516 26.2815 9.03409 23.7419 10.8822 21.2939C12.3073 19.3803 13.8358 17.7907 15.4676 16.5252C16.777 15.5122 18.1549 14.8592 19.6014 14.5661C21.9893 14.0537 24.1098 14.5667 25.9631 16.1052C27.0102 16.9597 27.8514 18.1216 28.4865 19.5911C28.5195 19.689 28.5775 19.8245 28.6604 19.9974C28.7433 20.1702 28.8013 20.3057 28.8344 20.4036C28.9974 20.7292 29.0857 20.9425 29.0994 21.0432ZM27.5264 24.5713C27.5295 24.4475 27.5308 24.1647 27.5304 23.7229C27.5299 23.2811 27.5216 22.9637 27.5054 22.7708C27.4892 22.5779 27.4627 22.3095 27.426 21.9654C27.3893 21.6214 27.3324 21.3111 27.2553 21.0346C27.1782 20.7581 27.0816 20.4844 26.9657 20.2136C26.9159 20.1386 26.8882 20.081 26.8828 20.0407C26.7602 18.9898 26.1377 18.1248 25.0152 17.4457C23.0529 16.2725 20.9897 16.1827 18.8256 17.1764C17.4449 17.8093 15.9506 18.9931 14.3428 20.7278C12.8239 22.388 11.4 24.3836 10.0711 26.7148C8.32705 29.7848 7.19548 32.6216 6.67636 35.2253C6.56123 35.8382 6.6875 36.4775 7.05515 37.1432C7.23761 37.466 7.49963 37.5717 7.84123 37.4602C8.09817 36.724 8.23362 36.3343 8.24758 36.2912C8.3229 36.1157 8.52167 35.6449 8.84388 34.8786C9.16611 34.1122 9.40815 33.522 9.57001 33.1079C10.2792 31.1753 11.3618 29.1472 12.8179 27.0235C13.216 26.4517 13.7399 26.0773 14.3897 25.9004C14.4811 25.9898 14.5884 26.0872 14.7117 26.1925C14.835 26.2979 14.9693 26.4119 15.1148 26.5346C15.2602 26.6573 15.3883 26.7619 15.4991 26.8485C15.4821 27.0154 15.4671 27.2334 15.454 27.5025C15.4409 27.7716 15.4328 27.968 15.4298 28.0918C15.3299 28.0858 15.2092 28.0726 15.0677 28.0521C14.9262 28.0316 14.8166 28.027 14.7389 28.0384C13.6946 29.691 12.6816 31.5753 11.7001 33.6915C10.7186 35.8077 10.2618 37.1896 10.3298 37.8374C10.9018 37.6718 11.2073 37.5862 11.2462 37.5805C12.7149 37.3048 14.2439 36.7428 15.8332 35.8945C16.3138 35.6395 17.6004 34.897 19.6928 33.6671C20.5182 33.1769 21.2429 32.9685 21.8672 33.0419C22.002 33.5977 21.8969 34.0652 21.5519 34.4444C20.7645 35.3607 20.1721 35.9609 19.7746 36.2449C18.3654 37.2519 16.6385 38.1818 14.5941 39.0348C13.1691 39.633 11.4477 39.9456 9.43011 39.9725C9.2989 40.3205 9.23467 40.5045 9.2374 40.5247C8.62511 42.587 8.15552 44.7519 7.82863 47.0192C7.61445 48.5097 7.57291 49.7387 7.704 50.7061C7.78078 51.1266 7.9655 51.6854 8.25815 52.3826C8.45426 52.8062 8.81876 53.01 9.35164 52.994C10.1037 52.9871 10.9161 52.694 11.7888 52.1146C14.0817 50.6089 16.1242 48.7183 17.9165 46.4429C20.0148 43.794 21.7286 41.2319 23.0578 38.7568C24.6879 35.724 25.8344 33.07 26.4971 30.7947C26.5475 30.5819 26.6148 30.274 26.6989 29.8713C26.783 29.4685 26.8447 29.1923 26.8839 29.0427C27.3459 27.1873 27.56 25.6968 27.5264 24.5713ZM40.2095 34.5919C40.5665 35.0332 40.6901 35.6523 40.5801 36.4493C40.2818 38.3426 39.4343 40.059 38.0378 41.5985C38.0044 41.6445 37.6942 41.9877 37.1072 42.6282C36.9129 42.6565 36.7187 42.6489 36.5245 42.6052C36.3303 42.5616 36.1799 42.5116 36.0731 42.4552C35.9664 42.3988 35.7981 42.2898 35.5681 42.128C35.3381 41.9663 35.1912 41.8695 35.1275 41.8377C35.1451 41.383 35.3958 40.9662 35.8795 40.5874C37.1278 39.5628 37.9944 37.9875 38.4791 35.8615C38.1038 36.1629 37.9064 36.3149 37.887 36.3178C36.8351 37.6221 35.8462 39.318 34.9203 41.4055C33.8856 43.7144 33.0481 46.6008 32.4078 50.0649C32.2 51.1639 31.8982 52.7391 31.5024 54.7904C31.1066 56.8418 30.8554 58.1321 30.7488 58.6615C30.7178 58.8715 30.6643 59.2082 30.5884 59.6714C30.5124 60.1347 30.4506 60.4828 30.4029 60.7158C30.299 61.2653 30.061 61.6289 29.6887 61.8065C29.1868 61.6125 28.6322 61.3953 28.025 61.1549C27.9376 60.51 27.9612 59.8797 28.0957 59.264C28.1407 59.0108 28.1942 58.6382 28.2563 58.1462C28.3185 57.6541 28.3761 57.3117 28.4293 57.119C28.4715 56.8456 28.6582 55.8473 28.9895 54.1239C29.3207 52.4006 29.554 51.0872 29.6891 50.1837C30.0689 47.8675 30.34 45.7007 30.5026 43.6834C30.568 42.9956 30.6796 40.8213 30.8375 37.1604C30.8627 37.0539 30.8603 36.8539 30.8305 36.5602C30.8006 36.2666 30.7955 36.0463 30.8152 35.8996C30.835 35.7528 30.9617 34.9328 31.1953 33.4395C31.2509 33.4108 31.3106 33.3764 31.3745 33.3363C31.4384 33.2962 31.494 33.2675 31.5412 33.2503C31.5884 33.2332 31.6308 33.2167 31.6683 33.201C31.7058 33.1852 31.7426 33.1645 31.7788 33.1386C32.0201 33.1651 32.2564 33.3002 32.4876 33.544C32.7188 33.7878 32.8425 34.0421 32.8585 34.3069C32.9132 34.71 32.9276 35.1087 32.9017 35.503C32.9038 35.811 32.8825 36.3485 32.8378 37.1154C32.7931 37.8824 32.7689 38.4717 32.7653 38.8833C32.7707 38.9236 32.8253 39.3267 32.9291 40.0926C33.1742 39.7075 33.2954 39.5048 33.2926 39.4847C33.6689 38.7516 33.9678 38.1788 34.1893 37.7662C34.4109 37.3537 34.7144 36.8522 35.1001 36.2616C35.4858 35.671 35.8678 35.1631 36.2461 34.738C36.6245 34.3129 37.0569 33.921 37.5434 33.5624C37.9214 33.2812 38.2506 33.151 38.5308 33.1718C38.8111 33.1926 39.1021 33.366 39.4039 33.692C39.6559 33.943 39.9244 34.243 40.2095 34.5919ZM52.5861 32.4796C52.7561 33.4413 52.6667 34.3176 52.3181 35.1083C51.5176 36.9515 50.5458 38.4085 49.4029 39.4794C48.7187 40.1341 48.0184 40.5959 47.3018 40.8647C46.5852 41.1336 45.8829 41.1795 45.1951 41.0022C44.5072 40.825 43.9141 40.4336 43.4159 39.828C43.0394 39.3896 42.7627 39.0292 42.5857 38.7467C42.2014 38.1039 42.1284 37.1999 42.3669 36.0347C42.639 34.6797 43.2257 33.5254 44.127 32.5719C44.1631 32.5461 44.2126 32.4721 44.2753 32.3499C44.338 32.2277 44.3958 32.1422 44.4486 32.0934C44.9521 31.5679 45.2774 31.2635 45.4247 31.1804C46.4113 30.5639 47.2476 30.74 47.9337 31.7087C47.9365 31.7289 47.9627 31.7764 48.0125 31.8514C48.0623 31.9263 48.1094 31.9811 48.1537 32.0158C48.4333 32.3244 48.6234 32.6667 48.7238 33.0425C48.8243 33.4184 48.8388 33.7811 48.7673 34.1307C48.6957 34.4802 48.577 34.811 48.4112 35.1229C48.2454 35.4348 48.0401 35.7113 47.7954 35.9525C46.7384 37.0726 45.5689 37.5822 44.2869 37.4813C44.2869 37.4813 44.1995 37.4941 44.0246 37.5196C43.9541 38.0231 43.9783 38.3844 44.0971 38.6034C44.216 38.8225 44.4793 38.9742 44.8871 39.0586C45.5806 39.2042 46.2079 39.1539 46.769 38.9076C47.6469 38.5125 48.467 37.838 49.2295 36.8842C50.5347 35.2552 51.318 33.651 51.5796 32.0714C51.5769 32.0512 51.6646 31.8945 51.8429 31.6014C52.2479 31.6656 52.4957 31.9584 52.5861 32.4796ZM46.6953 32.66C45.7725 33.3083 45.0947 34.2292 44.6619 35.4227C45.4116 35.2518 45.9792 34.907 46.3647 34.3884C46.7502 33.8697 46.8604 33.2936 46.6953 32.66ZM62.0341 31.349C62.6019 31.8829 62.7755 32.433 62.555 32.9996C62.3931 33.4137 62.2176 33.727 62.0284 33.9395C61.4442 34.6002 60.7515 35.3383 59.9505 36.1539C59.447 36.6794 58.6985 36.9324 57.705 36.9128C57.5721 36.8088 57.4419 36.6891 57.3145 36.5535C57.1872 36.4179 57.0772 36.2644 56.9846 36.0929C56.892 35.9214 56.8181 35.7781 56.7628 35.6628C56.7076 35.5475 56.6434 35.3668 56.5704 35.1205C56.4974 34.8742 56.4492 34.7014 56.4259 34.602C56.4025 34.5027 56.3564 34.309 56.2877 34.021C56.2189 33.733 56.1791 33.5487 56.1682 33.4681C55.801 33.8299 55.3404 34.452 54.7862 35.3343C53.9535 36.6478 53.4634 37.418 53.3158 37.6451C52.9204 38.2371 52.5298 38.5715 52.1438 38.6483C51.9386 38.596 51.7501 38.4847 51.5784 38.3145C51.4067 38.1443 51.24 37.9374 51.0782 37.6938C50.9163 37.4502 50.7787 37.275 50.6651 37.1682C50.7101 36.915 50.7635 36.5784 50.8255 36.1583C50.8875 35.7382 50.9431 35.3807 50.9923 35.0858C51.0415 34.7908 51.1005 34.4585 51.1693 34.0888C51.2381 33.7191 51.3006 33.376 51.3568 33.0595C51.4072 32.8467 51.4457 32.692 51.4723 32.5957C51.4989 32.4993 51.5505 32.3685 51.6272 32.2031C51.7039 32.0378 51.8061 31.915 51.934 31.8347C52.0618 31.7544 52.2326 31.6987 52.4464 31.6675C52.8839 32.1176 53.1308 32.7701 53.1872 33.6251C54.3703 31.9729 55.0384 31.0534 55.1914 30.8666C55.428 30.565 55.7783 30.2981 56.2422 30.066C56.7423 29.8082 57.1556 29.9329 57.4819 30.4403C58.0849 31.38 58.32 32.3837 58.1872 33.4513C58.1732 33.4944 58.1738 33.8643 58.1889 34.5609C58.8111 34.3263 59.5213 33.7912 60.3197 32.9554C61.118 32.1197 61.6895 31.5843 62.0341 31.349ZM78.862 15.362C79.0234 13.9203 79.0281 12.4192 78.8761 10.8588C78.762 9.72447 78.6747 9.00756 78.6143 8.70806C78.6007 8.60729 78.5614 8.49998 78.4964 8.38613C78.4314 8.27228 78.3554 8.14977 78.2683 8.0186C78.1811 7.88743 78.1237 7.79303 78.0961 7.7354C77.2775 7.6903 76.5926 8.04704 76.0415 8.80563C75.0783 10.1792 74.4252 11.2096 74.0823 11.8967C72.1898 15.6255 70.7822 19.0575 69.8595 22.1927C69.6973 22.7507 69.4939 23.4432 69.2492 24.2702C69.0046 25.0971 68.7935 25.8061 68.616 26.3972C68.4385 26.9883 68.2427 27.6642 68.0288 28.4251C67.8148 29.1859 67.6127 29.8885 67.4226 30.5328C66.5215 33.9732 66.0299 37.2922 65.948 40.4898C65.9106 41.0913 65.9697 41.9665 66.1254 43.1153C66.2101 43.7401 66.4768 44.2459 66.9255 44.6327C67.7417 44.5137 68.55 44.1903 69.3504 43.6626C70.1703 43.132 70.9286 42.5128 71.6253 41.805C72.3221 41.0971 73.1045 40.2174 73.9727 39.166C74.6711 38.3243 75.424 37.3359 76.2313 36.2008C77.0386 35.0658 77.6392 34.1972 78.0333 33.5951C78.4273 32.993 79.1074 31.9433 80.0737 30.446C80.3522 30.0149 80.7989 29.4359 81.4138 28.7092C81.8088 28.2611 82.2256 28.0462 82.6641 28.0645C82.9792 28.6351 83.0221 29.3174 82.7928 30.1113C82.3652 31.489 81.6363 32.9107 80.6063 34.3762C80.4392 34.6061 80.236 34.8977 79.9966 35.2512C79.7571 35.6047 79.5497 35.9021 79.3744 36.1435C79.199 36.3849 78.9951 36.6715 78.7626 37.0034C78.5302 37.3353 78.3179 37.6334 78.1258 37.8978C77.9338 38.1621 77.725 38.4495 77.4995 38.7598C77.274 39.0701 77.0604 39.3582 76.8586 39.624C76.6568 39.8897 76.4418 40.1677 76.2136 40.4579C75.9854 40.7481 75.7607 41.0275 75.5395 41.2961C75.3183 41.5647 75.088 41.8397 74.8487 42.1212C73.3769 43.8362 71.6184 45.264 69.5734 46.4048C68.2312 47.1759 67.0673 47.0681 66.0814 46.0814C66.0371 46.0467 65.7989 45.8605 65.3666 45.5227C64.9345 45.1849 64.6409 44.8835 64.4861 44.6183C64.453 44.5203 64.3791 44.377 64.2643 44.1882C64.1496 43.9994 64.057 43.8279 63.9865 43.6737C63.9161 43.5196 63.8616 43.3734 63.8231 43.2351C63.491 41.516 63.4023 40.2032 63.557 39.2969C63.6271 38.9373 63.6748 38.4114 63.6999 37.7192C63.725 37.027 63.7573 36.5341 63.7968 36.2406C64.1638 33.3919 64.7304 30.6272 65.4967 27.9463C66.2323 25.3316 67.1561 22.3504 68.2679 19.0026C68.7764 17.4898 69.6677 15.3662 70.9419 12.6319C71.8901 10.5617 72.8722 8.81543 73.8882 7.39304C74.3838 6.6631 75.1304 6.03018 76.1278 5.49428C76.8863 5.09597 77.7754 5.29523 78.7949 6.09206C80.5431 7.44037 81.3191 9.21815 81.1228 11.4254C81.069 11.9059 80.9943 12.4152 80.8988 12.9533C80.8032 13.4913 80.6826 14.0998 80.5368 14.7787C80.391 15.4577 80.2913 15.9655 80.2379 16.3021C80.1677 16.6617 80.0568 17.2328 79.9053 18.0154C79.8858 18.0182 79.8518 18.0232 79.8032 18.0303C79.7547 18.0373 79.7151 18.038 79.6846 18.0321C79.6541 18.0263 79.6194 18.0262 79.5805 18.0319C79.5417 18.0376 79.5118 18.0368 79.491 18.0295C79.4702 18.0223 79.4488 18.01 79.4266 17.9927C79.1221 17.6466 78.9562 17.3727 78.9288 17.1712C78.8193 16.5089 78.797 15.9058 78.862 15.362ZM92.386 29.1754C92.259 30.1394 92.1899 30.653 92.1787 30.7163C91.9809 32.3277 92.1499 33.7212 92.6857 34.8968C92.6966 34.9775 92.7055 35.043 92.7123 35.0934C92.7192 35.1437 92.7107 35.2272 92.6868 35.3437C92.663 35.4602 92.6454 35.5501 92.6342 35.6134C91.9459 35.6521 91.483 35.3805 91.2456 34.7985C91.1876 34.663 90.8648 33.816 90.277 32.2575C90.1185 32.4039 89.919 32.6128 89.6783 32.8843C89.4377 33.1557 89.2394 33.3747 89.0837 33.5413C88.9279 33.7079 88.72 33.8923 88.4601 34.0946C88.2002 34.2969 87.9535 34.4511 87.7202 34.557C87.4868 34.663 87.2098 34.7393 86.8892 34.786C86.5686 34.8328 86.2362 34.8298 85.8922 34.7772C85.1232 33.6356 84.7124 33.0172 84.6599 32.9221C84.1981 32.1467 84.2682 31.2014 84.8701 30.086C85.2518 29.3932 85.7975 28.5943 86.5072 27.6893C87.1027 26.9653 87.7296 26.4732 88.3879 26.2128C88.7629 26.0554 89.123 26.044 89.4682 26.1786C89.8134 26.3133 90.098 26.5493 90.3221 26.8866C90.3248 26.9067 90.4575 27.1546 90.7201 27.6301C90.82 27.6361 90.9858 27.653 91.2175 27.6809C91.4491 27.7088 91.6343 27.7229 91.7731 27.7233C91.8587 27.9163 91.9761 28.1972 92.1251 28.566C92.2742 28.9348 92.3611 29.1379 92.386 29.1754ZM89.7007 29.3202C89.9345 28.9984 89.9465 28.5753 89.7368 28.0509C89.3202 28.1939 88.8101 28.5611 88.2066 29.1526C87.6031 29.7441 87.1425 30.3302 86.8248 30.9109C86.4598 31.5807 86.3171 32.1359 86.3966 32.5765C86.6103 32.5453 86.7269 32.5283 86.7464 32.5255C88.0087 31.4577 88.9934 30.3893 89.7007 29.3202ZM106.583 22.7282C106.583 22.7282 106.73 22.789 107.024 22.9106C107.023 23.3423 106.839 23.6672 106.472 23.885C105.719 24.3237 105.297 24.5702 105.205 24.6247C103.411 25.4206 101.342 26.6779 98.9983 28.3965C98.9816 28.4195 98.8078 28.599 98.4768 28.935C99.5805 29.3291 100.56 29.9776 101.416 30.8805C102.199 31.6912 102.599 32.8147 102.616 34.251C102.626 35.9349 102.251 37.7776 101.492 39.7791C100.574 42.2149 99.4928 44.0373 98.2496 45.2461C98.1801 45.3179 97.7381 45.6393 96.9237 46.2101C96.5985 46.4425 96.2335 46.4546 95.8288 46.2464C94.9723 45.7752 94.4056 45.3954 94.1287 45.1069C94.0373 45.0175 93.9619 44.9 93.9026 44.7545C93.8432 44.609 93.7806 44.4023 93.7145 44.1345C93.6485 43.8666 93.6031 43.714 93.5782 43.6765C93.5369 43.5181 93.5249 43.2835 93.5422 42.9727C93.5456 42.705 93.5515 42.2365 93.5599 41.5673C93.5683 40.8981 93.5841 40.3203 93.6074 39.834C93.6306 39.3476 93.6622 38.8857 93.702 38.4483C93.926 36.2986 94.2477 33.847 94.6672 31.0934C94.7881 30.377 95.1548 28.3299 95.7672 24.9522C95.7924 24.8457 95.8253 24.7228 95.8658 24.5833C95.9064 24.4438 95.9469 24.3042 95.9875 24.1647C96.028 24.0252 96.0609 23.9023 96.0861 23.7958C96.0973 23.7325 96.1915 23.1844 96.3686 22.1515C96.5457 21.1186 96.7084 20.3447 96.8566 19.8298C96.907 19.6169 96.9893 19.0911 97.1036 18.2523C97.2178 17.4136 97.3753 16.7843 97.576 16.3645C97.5487 16.163 97.5485 15.9421 97.5754 15.7018C97.6023 15.4615 97.6298 15.2623 97.6579 15.104C97.686 14.9458 97.7308 14.7286 97.7925 14.4524C97.8542 14.1762 97.8962 13.9748 97.9187 13.8482C98.2188 12.4069 98.5403 11.3426 98.8832 10.6555C99.0058 10.391 99.2019 10.1929 99.4714 10.0611C99.7409 9.92931 99.9991 9.89682 100.246 9.9636C100.512 10.0276 100.771 10.216 101.021 10.5289C101.272 10.8418 101.395 11.132 101.392 11.3997C101.392 11.3997 101.346 11.4989 101.254 11.6973C101.037 11.7083 100.819 11.7092 100.6 11.7001C100.519 11.8352 100.453 11.9681 100.402 12.099C100.35 12.2298 100.3 12.3708 100.251 12.5218C100.202 12.6728 100.165 12.8065 100.142 12.923C100.118 13.0395 100.089 13.1927 100.055 13.3826C100.022 13.5725 100 13.7092 99.9919 13.7927C99.8322 14.5148 99.6581 15.4239 99.4698 16.5201C99.4442 16.7705 99.3962 17.1474 99.3258 17.651C99.2553 18.1545 99.2059 18.5214 99.1777 18.7516C99.1552 18.8782 99.1327 19.0048 99.1102 19.1314C99.0877 19.258 99.0646 19.3795 99.0407 19.496C99.0169 19.6126 98.9895 19.7399 98.9587 19.878C98.9279 20.016 98.9054 20.1426 98.8913 20.2577C98.8771 20.3728 98.854 20.4944 98.8218 20.6224C98.7896 20.7504 98.7623 20.8777 98.7398 21.0043C98.3971 22.8629 98.119 24.3936 97.9055 25.5962C97.8915 25.6393 97.8014 26.2177 97.6353 27.3312C98.7582 26.551 99.3474 26.1465 99.403 26.1178C101.046 24.9329 102.909 23.9112 104.992 23.0526C105.217 22.9581 105.747 22.85 106.583 22.7282ZM99.7951 31.425C99.0965 31.0952 98.1436 30.9361 96.9363 30.9477C96.8828 31.2843 96.7929 31.7907 96.6666 32.4668C96.5402 33.1429 96.4376 33.7385 96.3588 34.2535C96.2799 34.7686 96.2123 35.2563 96.1557 35.7167C95.9692 37.2648 95.7911 39.3872 95.6214 42.0838C95.5807 42.953 95.6916 43.6253 95.9542 44.1009C96.2682 43.9318 96.4349 43.8459 96.4543 43.843C97.2608 43.0678 97.9499 42.0835 98.5214 40.8904C99.1877 39.519 99.6816 38.2652 100.003 37.129C100.272 36.1855 100.443 35.1842 100.518 34.1252C100.582 33.7252 100.565 33.2654 100.465 32.7456C100.364 32.2258 100.141 31.7856 99.7951 31.425ZM116.51 23.1618C116.68 24.1235 116.591 24.9998 116.242 25.7905C115.442 27.6336 114.47 29.0907 113.327 30.1616C112.643 30.8163 111.943 31.278 111.226 31.5469C110.509 31.8158 109.807 31.8616 109.119 31.6844C108.432 31.5072 107.838 31.1158 107.34 30.5102C106.964 30.0718 106.687 29.7114 106.51 29.4289C106.126 28.7861 106.053 27.8821 106.291 26.7169C106.563 25.3619 107.15 24.2076 108.051 23.2541C108.087 23.2283 108.137 23.1543 108.2 23.0321C108.262 22.9099 108.32 22.8244 108.373 22.7756C108.876 22.25 109.202 21.9457 109.349 21.8626C110.336 21.2461 111.172 21.4222 111.858 22.3909C111.861 22.4111 111.887 22.4586 111.937 22.5336C111.987 22.6085 112.034 22.6633 112.078 22.698C112.358 23.0066 112.548 23.3489 112.648 23.7247C112.749 24.1006 112.763 24.4633 112.692 24.8129C112.62 25.1624 112.501 25.4931 112.336 25.8051C112.17 26.117 111.964 26.3935 111.72 26.6347C110.663 27.7548 109.493 28.2644 108.211 28.1635C108.211 28.1635 108.124 28.1763 107.949 28.2017C107.878 28.7053 107.903 29.0666 108.021 29.2856C108.14 29.5047 108.404 29.6564 108.811 29.7408C109.505 29.8864 110.132 29.836 110.693 29.5898C111.571 29.1947 112.391 28.5202 113.154 27.5664C114.459 25.9374 115.242 24.3331 115.504 22.7535C115.501 22.7334 115.589 22.5767 115.767 22.2835C116.172 22.3478 116.42 22.6406 116.51 23.1618ZM110.62 23.3422C109.697 23.9905 109.019 24.9114 108.586 26.1049C109.336 25.934 109.904 25.5892 110.289 25.0706C110.675 24.5519 110.785 23.9758 110.62 23.3422Z" fill="white"/>
<path d="M54.1133 60.9807H56.1123V60.1793H54.1133V60.9807ZM61.6113 62.8736C62.036 62.8736 62.4461 62.6293 62.7463 62.324H62.7683L62.8561 62.7667H63.7275V56.6761H62.6511V58.1796L62.6951 58.8513C62.4022 58.5689 62.1166 58.3857 61.6553 58.3857C60.7693 58.3857 59.9345 59.2405 59.9345 60.6373C59.9345 62.034 60.5935 62.8736 61.6113 62.8736ZM61.8896 61.95C61.3477 61.95 61.0402 61.5074 61.0402 60.622C61.0402 59.7672 61.4283 59.3092 61.8896 59.3092C62.1459 59.3092 62.4022 59.3932 62.6511 59.6298V61.5074C62.4168 61.8279 62.1752 61.95 61.8896 61.95ZM65.6167 62.7667H66.6857V58.4926H65.6167V62.7667ZM66.1585 57.8057C66.5246 57.8057 66.7956 57.5462 66.7956 57.1951C66.7956 56.8287 66.5246 56.5845 66.1585 56.5845C65.7851 56.5845 65.5141 56.8287 65.5141 57.1951C65.5141 57.5462 65.7851 57.8057 66.1585 57.8057ZM69.7465 62.8736C70.8155 62.8736 71.3793 62.2706 71.3793 61.5226C71.3793 60.7289 70.7789 60.4465 70.2371 60.2328C69.805 60.0648 69.4023 59.9504 69.4023 59.6374C69.4023 59.3932 69.578 59.2253 69.9442 59.2253C70.2517 59.2253 70.5373 59.3779 70.8302 59.5916L71.3134 58.9124C70.9693 58.6452 70.5153 58.3857 69.9149 58.3857C68.9923 58.3857 68.3918 58.9276 68.3918 59.6985C68.3918 60.4083 68.9923 60.7365 69.5121 60.9426C69.9442 61.1181 70.3689 61.2631 70.3689 61.5837C70.3689 61.8508 70.1858 62.034 69.7757 62.034C69.395 62.034 69.0435 61.8661 68.6774 61.5684L68.1868 62.2706C68.5895 62.6217 69.1973 62.8736 69.7465 62.8736ZM72.9317 62.7667H74.0007V59.8282C74.3083 59.5153 74.5206 59.3474 74.8574 59.3474C75.2602 59.3474 75.4359 59.584 75.4359 60.2404V62.7667H76.5123V60.103C76.5123 59.0268 76.1315 58.3857 75.2455 58.3857C74.689 58.3857 74.2863 58.691 73.9568 59.0116L74.0007 58.2102V56.6761H72.9317V62.7667ZM81.4109 61.2021C81.4109 60.8968 81.594 60.6449 81.8576 60.4083C82.2017 60.8815 82.6191 61.3318 83.0804 61.7287C82.8241 61.9042 82.5532 62.0111 82.2896 62.0111C81.7697 62.0111 81.4109 61.6829 81.4109 61.2021ZM81.9528 58.4468C81.9528 58.027 82.1798 57.7599 82.4946 57.7599C82.7802 57.7599 82.9047 57.9659 82.9047 58.2483C82.9047 58.6605 82.5752 58.9353 82.1505 59.2024C82.026 58.9353 81.9528 58.6834 81.9528 58.4468ZM85.4309 61.9577C85.1526 61.9042 84.8231 61.7592 84.4717 61.5532C84.889 60.9655 85.1893 60.3091 85.387 59.6145H84.4131C84.2666 60.1717 84.0323 60.6525 83.7468 61.0494C83.3147 60.706 82.8974 60.2938 82.5752 59.874C83.1537 59.4543 83.7394 58.9887 83.7394 58.2407C83.7394 57.5004 83.2488 57.0119 82.48 57.0119C81.6086 57.0119 81.0595 57.6606 81.0595 58.4468C81.0595 58.8208 81.1839 59.2405 81.4036 59.668C80.8618 60.0267 80.3858 60.4846 80.3858 61.2708C80.3858 62.1485 81.0229 62.8736 82.1578 62.8736C82.8241 62.8736 83.3733 62.6446 83.82 62.2782C84.274 62.5759 84.7426 62.7743 85.1673 62.8736L85.4309 61.9577ZM91.0252 62.8736C91.4791 62.8736 91.9771 62.7133 92.3651 62.3546L91.9404 61.6142C91.7135 61.8127 91.4352 61.9577 91.1423 61.9577C90.5492 61.9577 90.1245 61.4387 90.1245 60.6373C90.1245 59.8282 90.5492 59.3016 91.1716 59.3016C91.4059 59.3016 91.5963 59.4008 91.8013 59.584L92.3139 58.8589C92.0137 58.5918 91.6256 58.3857 91.1203 58.3857C90.0074 58.3857 89.0262 59.21 89.0262 60.6373C89.0262 62.0493 89.8902 62.8736 91.0252 62.8736ZM95.3673 62.8736C96.3924 62.8736 97.337 62.0493 97.337 60.6373C97.337 59.21 96.3924 58.3857 95.3673 58.3857C94.3422 58.3857 93.3976 59.21 93.3976 60.6373C93.3976 62.0493 94.3422 62.8736 95.3673 62.8736ZM95.3673 61.9577C94.8108 61.9577 94.4959 61.4387 94.4959 60.6373C94.4959 59.8282 94.8108 59.3016 95.3673 59.3016C95.9238 59.3016 96.2387 59.8282 96.2387 60.6373C96.2387 61.4387 95.9238 61.9577 95.3673 61.9577ZM101.32 56.7219C101.137 56.6455 100.859 56.5692 100.544 56.5692C99.5117 56.5692 99.1163 57.2561 99.1163 58.1491V58.5002L98.5672 58.546V59.3779H99.1163V62.7667H100.193V59.3779H100.962V58.4926H100.193V58.1262C100.193 57.653 100.368 57.4546 100.691 57.4546C100.822 57.4546 100.984 57.4927 101.123 57.5462L101.32 56.7219ZM104.776 56.7219C104.593 56.6455 104.315 56.5692 104 56.5692C102.968 56.5692 102.572 57.2561 102.572 58.1491V58.5002L102.023 58.546V59.3779H102.572V62.7667H103.649V59.3779H104.418V58.4926H103.649V58.1262C103.649 57.653 103.825 57.4546 104.147 57.4546C104.279 57.4546 104.44 57.4927 104.579 57.5462L104.776 56.7219ZM107.537 62.8736C108.05 62.8736 108.569 62.6904 108.972 62.4004L108.606 61.7134C108.313 61.9042 108.02 62.0111 107.683 62.0111C107.076 62.0111 106.636 61.6447 106.549 60.9426H109.075C109.104 60.8433 109.126 60.6373 109.126 60.4312C109.126 59.2482 108.54 58.3857 107.413 58.3857C106.431 58.3857 105.501 59.2482 105.501 60.6373C105.501 62.0416 106.395 62.8736 107.537 62.8736ZM106.534 60.2022C106.614 59.5764 106.995 59.2558 107.427 59.2558C107.954 59.2558 108.203 59.6222 108.203 60.2022H106.534ZM112.524 62.8736C113.036 62.8736 113.556 62.6904 113.959 62.4004L113.593 61.7134C113.3 61.9042 113.007 62.0111 112.67 62.0111C112.062 62.0111 111.623 61.6447 111.535 60.9426H114.061C114.091 60.8433 114.112 60.6373 114.112 60.4312C114.112 59.2482 113.527 58.3857 112.399 58.3857C111.418 58.3857 110.488 59.2482 110.488 60.6373C110.488 62.0416 111.381 62.8736 112.524 62.8736ZM111.52 60.2022C111.601 59.5764 111.982 59.2558 112.414 59.2558C112.941 59.2558 113.19 59.6222 113.19 60.2022H111.52ZM117.905 60.9807H119.904V60.1793H117.905V60.9807Z" fill="white"/>
</svg>
